<svg xmlns="http://www.w3.org/2000/svg" version="1.1" xmlns:xlink="http://www.w3.org/1999/xlink" xmlns:svgjs="http://svgjs.dev/svgjs" width="2000" height="1247" viewBox="0 0 2000 1247"><g transform="matrix(1,0,0,1,-1.2121212121212466,0.5048582995951847)"><svg viewBox="0 0 396 247" data-background-color="#ffffff" preserveAspectRatio="xMidYMid meet" height="1247" width="2000" xmlns="http://www.w3.org/2000/svg" xmlns:xlink="http://www.w3.org/1999/xlink"><g id="tight-bounds" transform="matrix(1,0,0,1,0.2400000000000091,-0.09999999999999432)"><svg viewBox="0 0 395.52 247.2" height="247.2" width="395.52"><g><svg></svg></g><g><svg viewBox="0 0 395.52 247.2" height="247.2" width="395.52"><g transform="matrix(1,0,0,1,75.54432,72.81187480106101)"><svg viewBox="0 0 244.43135999999998 101.57625039787797" height="101.57625039787797" width="244.43135999999998"><g><svg viewBox="0 0 244.43135999999998 101.57625039787797" height="101.57625039787797" width="244.43135999999998"><g><svg viewBox="0 0 244.43135999999998 101.57625039787797" height="101.57625039787797" width="244.43135999999998"><g><svg viewBox="0 0 244.43135999999998 101.57625039787797" height="101.57625039787797" width="244.43135999999998"><g id="textblocktransform"><svg viewBox="0 0 244.43135999999998 101.57625039787797" height="101.57625039787797" width="244.43135999999998" id="textblock"><g><svg viewBox="0 0 244.43135999999998 101.57625039787797" height="101.57625039787797" width="244.43135999999998"><g transform="matrix(1,0,0,1,0,0)"><svg width="244.43135999999998" viewBox="1.0499999523162842 -36 113.08999633789062 47" height="101.57625039787797" data-palette-color="#ee3e38"><path d="M9 0L4.8 0 4.8-21.25 1.05-21.25 1.05-24.8 4.8-24.8 4.8-29.1Q4.8-32.7 6.6-34.35 8.4-36 11.85-36L11.85-36 14.35-36 14.35-32.4 12.5-32.4Q10.6-32.4 9.8-31.63 9-30.85 9-29L9-29 9-24.8 15.1-24.8 15.1-21.25 9-21.25 9 0ZM30.25 0.6L30.25 0.6Q26.7 0.6 23.95-1.03 21.2-2.65 19.62-5.55 18.05-8.45 18.05-12.4L18.05-12.4Q18.05-16.3 19.6-19.23 21.15-22.15 23.92-23.78 26.7-25.4 30.35-25.4L30.35-25.4Q33.95-25.4 36.57-23.78 39.2-22.15 40.6-19.5 42-16.85 42-13.8L42-13.8Q42-13.25 41.97-12.7 41.95-12.15 41.95-11.45L41.95-11.45 22.2-11.45Q22.35-8.6 23.52-6.73 24.7-4.85 26.47-3.9 28.25-2.95 30.25-2.95L30.25-2.95Q32.85-2.95 34.6-4.15 36.35-5.35 37.15-7.4L37.15-7.4 41.3-7.4Q40.3-3.95 37.47-1.68 34.65 0.6 30.25 0.6ZM30.25-21.85L30.25-21.85Q27.25-21.85 24.92-20.03 22.6-18.2 22.25-14.7L22.25-14.7 37.85-14.7Q37.7-18.05 35.55-19.95 33.4-21.85 30.25-21.85ZM57.05 0.6L57.05 0.6Q52.6 0.6 49.65-1.65 46.7-3.9 46.2-7.75L46.2-7.75 50.5-7.75Q50.9-5.8 52.57-4.38 54.25-2.95 57.1-2.95L57.1-2.95Q59.75-2.95 61-4.08 62.25-5.2 62.25-6.75L62.25-6.75Q62.25-9 60.62-9.75 59-10.5 56.05-11.1L56.05-11.1Q54.05-11.5 52.05-12.25 50.05-13 48.7-14.38 47.35-15.75 47.35-18L47.35-18Q47.35-21.25 49.77-23.33 52.2-25.4 56.35-25.4L56.35-25.4Q60.3-25.4 62.82-23.43 65.34-21.45 65.75-17.8L65.75-17.8 61.6-17.8Q61.35-19.7 59.97-20.78 58.6-21.85 56.3-21.85L56.3-21.85Q54.05-21.85 52.82-20.9 51.6-19.95 51.6-18.4L51.6-18.4Q51.6-16.9 53.17-16.05 54.75-15.2 57.45-14.6L57.45-14.6Q59.75-14.1 61.82-13.38 63.9-12.65 65.22-11.23 66.55-9.8 66.55-7.1L66.55-7.1Q66.59-3.75 64.02-1.58 61.45 0.6 57.05 0.6ZM85.04 0L81.24 0Q77.84 0 75.89-1.65 73.94-3.3 73.94-7.6L73.94-7.6 73.94-21.25 69.64-21.25 69.64-24.8 73.94-24.8 74.49-30.75 78.14-30.75 78.14-24.8 85.44-24.8 85.44-21.25 78.14-21.25 78.14-7.6Q78.14-5.25 79.09-4.42 80.04-3.6 82.44-3.6L82.44-3.6 85.04-3.6 85.04 0ZM97.89 11L93.49 11 99.64-2.4 98.19-2.4 88.34-24.8 92.89-24.8 101.09-5.5 109.79-24.8 114.14-24.8 97.89 11Z" opacity="1" transform="matrix(1,0,0,1,0,0)" fill="#ee3e38" class="wordmark-text-0" data-fill-palette-color="primary" id="text-0"></path></svg></g></svg></g></svg></g></svg></g></svg></g></svg></g></svg></g><g><path d="M245.816 0c68.262 0 123.6 55.338 123.6 123.6 0 68.262-55.338 123.6-123.6 123.6-45.345 0-84.986-24.418-106.493-60.822h5.357c21.003 33.765 58.445 56.242 101.136 56.242 65.733 0 119.02-53.287 119.02-119.02 0-65.733-53.287-119.02-119.02-119.02-42.691 0-80.133 22.477-101.136 56.242h-5.357c21.507-36.404 61.148-60.822 106.493-60.822z" fill="#ee3e38" stroke="transparent" data-fill-palette-color="tertiary"></path></g></svg></g><defs></defs></svg><rect width="395.52" height="247.2" fill="none" stroke="none" visibility="hidden"></rect></g></svg></g></svg>